<svg version="1.1" id="Layer_1" xmlns="http://www.w3.org/2000/svg" xmlns:xlink="http://www.w3.org/1999/xlink" x="0px" y="0px"
	 width="100%" viewBox="0 0 512 512" enable-background="new 0 0 512 512" xml:space="preserve">
<path fill="#FFFFFF" opacity="1.000000" stroke="none" 
	d="
M302.000000,513.000000 
	C201.357773,513.000000 101.215538,513.000000 1.036655,513.000000 
	C1.036655,342.399414 1.036655,171.798813 1.036655,1.099110 
	C171.558914,1.099110 342.117889,1.099110 512.838440,1.099110 
	C512.838440,171.666550 512.838440,342.333252 512.838440,513.000000 
	C442.798798,513.000000 372.649384,513.000000 302.000000,513.000000 
M22.021076,241.928986 
	C22.069656,250.620209 22.118238,259.311432 22.021290,268.929565 
	C22.069626,283.287811 22.117960,297.646088 22.022335,312.931244 
	C22.022335,330.856903 22.022335,348.782593 22.022335,367.151642 
	C31.280340,367.151642 40.017391,367.151642 49.166451,367.151642 
	C49.166451,373.066986 49.166451,378.536285 49.023438,384.932434 
	C49.023438,420.856476 49.023438,456.780548 49.023438,492.741882 
	C155.930038,492.741882 262.304626,492.741882 369.124573,492.741882 
	C369.124573,483.414734 369.124573,474.343292 369.124573,464.844238 
	C401.627991,464.844238 433.688293,464.844238 465.833588,464.844238 
	C465.833588,444.602173 465.833588,424.802673 465.985229,404.076294 
	C465.985229,391.811920 465.985229,379.547516 465.985229,366.866638 
	C475.309021,366.866638 484.063782,366.866638 492.833679,366.866638 
	C492.833679,364.295959 492.833679,362.149353 492.984131,359.075684 
	C492.933868,347.384338 492.883606,335.692993 492.983795,323.074860 
	C492.933746,311.050659 492.883728,299.026459 492.984192,286.075378 
	C492.934113,270.384827 492.884033,254.694290 492.985718,238.076904 
	C492.935028,221.052216 492.884308,204.027527 492.982452,186.075592 
	C492.932587,175.050934 492.882721,164.026276 492.981689,152.074646 
	C492.932129,136.717224 492.882568,121.359795 492.981995,105.075333 
	C492.981995,86.815521 492.981995,68.555702 492.981995,49.848480 
	C451.372345,49.848480 410.321777,49.848480 368.801788,49.848480 
	C368.801788,40.335022 368.801788,31.268082 368.801788,22.310192 
	C252.971268,22.310192 137.614822,22.310192 22.166473,22.310192 
	C22.166473,50.748661 22.166473,78.875534 22.023590,107.929802 
	C22.071301,126.620903 22.119011,145.311996 22.024179,164.930450 
	C22.071590,180.620926 22.119001,196.311386 22.022034,212.929153 
	C22.070318,222.286789 22.118603,231.644424 22.021076,241.928986 
z"/>
<path fill="#D60E0A" opacity="1.000000" stroke="none" 
	d="
M465.833588,405.003204 
	C465.833588,424.802673 465.833588,444.602173 465.833588,464.844238 
	C433.688293,464.844238 401.627991,464.844238 369.124573,464.844238 
	C369.124573,474.343292 369.124573,483.414734 369.124573,492.741882 
	C262.304626,492.741882 155.930038,492.741882 49.023438,492.741882 
	C49.023438,456.780548 49.023438,420.856476 49.552845,384.467224 
	C92.406616,384.001343 134.730988,384.015717 177.055267,383.951813 
	C179.003372,383.948883 180.950424,383.243134 182.897964,382.864716 
	C183.010132,382.280273 183.122299,381.695801 183.234482,381.111359 
	C178.990067,379.690613 174.589951,378.384125 176.404114,372.879211 
	C189.965103,385.599579 205.883514,393.023712 223.520798,396.991516 
	C245.830307,402.010468 267.996338,400.944580 289.957214,395.385315 
	C286.399261,397.668945 282.883820,399.585602 278.129974,402.177399 
	C280.992889,402.530853 282.892792,402.968170 284.793152,402.970123 
	C323.605621,403.009949 362.419983,402.775146 401.229950,403.088593 
	C422.768219,403.262512 444.299286,404.335480 465.833588,405.003204 
z"/>
<path fill="#F82424" opacity="1.000000" stroke="none" 
	d="
M22.166473,107.002403 
	C22.166473,78.875534 22.166473,50.748661 22.166473,22.310192 
	C137.614822,22.310192 252.971268,22.310192 368.801788,22.310192 
	C368.801788,31.268082 368.801788,40.335022 368.801788,49.848480 
	C410.321777,49.848480 451.372345,49.848480 492.981995,49.848480 
	C492.981995,68.555702 492.981995,86.815521 492.449707,105.538116 
	C335.340179,109.333420 178.752838,107.937912 22.166473,107.002403 
z"/>
<path fill="#F32120" opacity="1.000000" stroke="none" 
	d="
M22.095032,107.466103 
	C178.752838,107.937912 335.340179,109.333420 492.375244,106.001633 
	C492.882568,121.359795 492.932129,136.717224 492.449524,152.537613 
	C481.140808,153.333725 470.365082,153.917313 459.587524,153.954117 
	C423.966827,154.075775 388.345398,154.040024 352.724518,153.953842 
	C347.776215,153.941879 342.829407,153.307571 337.932495,152.549759 
	C336.118347,147.730911 335.357422,142.122604 332.150696,139.175705 
	C326.157959,133.668488 319.144318,128.914871 311.853271,125.241249 
	C284.190704,111.303307 255.002243,107.674889 224.667282,114.151016 
	C211.977036,116.860214 200.089355,121.778305 190.397324,130.467484 
	C180.414200,139.417618 172.910049,150.400803 167.558838,163.001404 
	C161.856995,163.335083 156.583862,163.946304 151.309601,163.955994 
	C108.262085,164.035187 65.214371,164.002060 22.166721,164.003098 
	C22.119011,145.311996 22.071301,126.620903 22.095032,107.466103 
z"/>
<path fill="#EC1C1B" opacity="1.000000" stroke="none" 
	d="
M492.833588,187.002838 
	C492.884308,204.027527 492.935028,221.052216 492.451965,238.539124 
	C436.140594,239.000885 380.362640,239.082443 324.585815,238.871384 
	C319.091827,238.850616 313.615204,236.969269 308.107330,236.098053 
	C306.598206,235.859329 305.004913,236.152985 303.124573,236.141632 
	C285.405548,229.088257 268.024292,222.065125 250.613770,215.115311 
	C241.463272,211.462677 232.420441,207.619003 225.560364,200.196960 
	C216.716766,190.628922 218.178940,177.769760 228.944016,170.525635 
	C231.261536,168.966125 233.847733,167.656128 236.488358,166.751068 
	C252.593536,161.231064 267.761383,163.403564 281.364441,173.545822 
	C287.728577,178.290802 293.165253,184.262604 299.190552,189.484161 
	C304.788177,194.335083 309.589844,194.362320 315.250153,189.592026 
	C318.023529,187.254745 320.394257,184.439774 322.962860,182.264130 
	C322.647705,187.375336 325.893524,187.011124 328.986267,187.010361 
	C383.602051,186.996979 438.217804,187.001892 492.833588,187.002838 
z"/>
<path fill="#DE1310" opacity="1.000000" stroke="none" 
	d="
M176.086609,372.750580 
	C174.589951,378.384125 178.990067,379.690613 183.234482,381.111359 
	C183.122299,381.695801 183.010132,382.280273 182.897964,382.864716 
	C180.950424,383.243134 179.003372,383.948883 177.055267,383.951813 
	C134.730988,384.015717 92.406616,384.001343 49.624352,384.003784 
	C49.166451,378.536285 49.166451,373.066986 49.166451,367.151642 
	C40.017391,367.151642 31.280340,367.151642 22.022335,367.151642 
	C22.022335,348.782593 22.022335,330.856903 22.552208,312.466370 
	C61.689079,312.001007 100.296509,311.907654 138.902664,312.087799 
	C145.643127,312.119263 152.064606,312.555359 155.423050,305.099701 
	C155.461960,305.013275 155.734787,305.032196 155.927612,305.421844 
	C155.619934,308.477386 155.143845,311.103790 154.968079,313.750153 
	C153.459244,336.466766 160.303040,356.213654 176.086609,372.750580 
z"/>
<path fill="#E41715" opacity="1.000000" stroke="none" 
	d="
M155.898422,305.001953 
	C155.734787,305.032196 155.461960,305.013275 155.423050,305.099701 
	C152.064606,312.555359 145.643127,312.119263 138.902664,312.087799 
	C100.296509,311.907654 61.689079,312.001007 22.624187,312.002930 
	C22.117960,297.646088 22.069626,283.287811 22.551899,268.465271 
	C72.189743,268.000671 121.296989,268.016022 170.404160,267.963013 
	C173.522842,267.959656 176.645004,267.143951 179.758606,267.188721 
	C190.373276,267.341370 200.987320,267.643433 211.596085,268.036987 
	C214.765167,268.154572 215.199341,266.453674 215.361969,264.024017 
	C223.630600,267.211487 231.516541,270.415741 239.452316,273.491425 
	C245.251633,275.739075 250.970993,278.460632 256.986053,279.821686 
	C266.152802,281.895874 273.312134,287.381287 280.962524,292.535004 
	C280.628296,296.813995 277.647736,295.973297 275.305206,295.976288 
	C246.866882,296.012756 218.428513,295.999969 189.780548,295.720337 
	C189.331390,294.313171 189.091843,293.185669 189.096039,291.911865 
	C188.962616,291.177734 188.585480,290.589905 188.046967,289.641174 
	C186.897614,285.140198 185.977951,280.982300 184.904922,276.864349 
	C183.465134,271.338898 179.025772,269.154053 174.487320,272.413605 
	C171.027130,274.898743 168.153091,278.393341 165.553009,281.841949 
	C160.388901,288.691345 157.781891,296.723114 155.898422,305.001953 
z"/>
<path fill="#E61816" opacity="1.000000" stroke="none" 
	d="
M303.450226,236.202332 
	C305.004913,236.152985 306.598206,235.859329 308.107330,236.098053 
	C313.615204,236.969269 319.091827,238.850616 324.585815,238.871384 
	C380.362640,239.082443 436.140594,239.000885 492.376099,239.002548 
	C492.884033,254.694290 492.934113,270.384827 492.451050,286.538055 
	C444.201538,286.688599 396.485168,286.376434 348.522827,285.807343 
	C344.744720,278.489075 342.258972,270.597717 337.456909,264.543640 
	C328.195557,252.867569 316.394806,243.725327 303.450226,236.202332 
z"/>
<path fill="#DA100D" opacity="1.000000" stroke="none" 
	d="
M465.909424,404.539734 
	C444.299286,404.335480 422.768219,403.262512 401.229950,403.088593 
	C362.419983,402.775146 323.605621,403.009949 284.793152,402.970123 
	C282.892792,402.968170 280.992889,402.530853 278.129974,402.177399 
	C282.883820,399.585602 286.399261,397.668945 290.272491,395.164642 
	C298.430908,391.087067 306.916382,388.603516 313.871155,383.870636 
	C324.229462,376.821503 332.962830,367.670197 340.099884,357.069977 
	C342.472198,357.824280 344.471039,358.909515 346.479248,358.927124 
	C395.263458,359.354706 444.048645,359.668488 492.833679,360.002747 
	C492.833679,362.149353 492.833679,364.295959 492.833679,366.866638 
	C484.063782,366.866638 475.309021,366.866638 465.985229,366.866638 
	C465.985229,379.547516 465.985229,391.811920 465.909424,404.539734 
z"/>
<path fill="#ED1D1C" opacity="1.000000" stroke="none" 
	d="
M22.095451,164.466766 
	C65.214371,164.002060 108.262085,164.035187 151.309601,163.955994 
	C156.583862,163.946304 161.856995,163.335083 167.552246,163.384766 
	C162.492172,178.904877 162.707474,194.378876 164.843536,210.027100 
	C161.604568,210.709488 158.770905,211.909485 155.934082,211.917038 
	C111.345093,212.035919 66.755707,212.001236 22.166412,212.001862 
	C22.119001,196.311386 22.071590,180.620926 22.095451,164.466766 
z"/>
<path fill="#F01F1E" opacity="1.000000" stroke="none" 
	d="
M492.908020,186.539215 
	C438.217804,187.001892 383.602051,186.996979 328.986267,187.010361 
	C325.893524,187.011124 322.647705,187.375336 323.050293,181.938232 
	C327.252747,173.717957 331.424805,166.269135 335.484253,158.759384 
	C336.473419,156.929398 337.092621,154.899414 337.881927,152.961365 
	C342.829407,153.307571 347.776215,153.941879 352.724518,153.953842 
	C388.345398,154.040024 423.966827,154.075775 459.587524,153.954117 
	C470.365082,153.917313 481.140808,153.333725 492.375122,153.001099 
	C492.882721,164.026276 492.932587,175.050934 492.908020,186.539215 
z"/>
<path fill="#E11512" opacity="1.000000" stroke="none" 
	d="
M348.768799,286.064270 
	C396.485168,286.376434 444.201538,286.688599 492.375793,287.001495 
	C492.883728,299.026459 492.933746,311.050659 492.450684,323.537659 
	C448.469330,324.000305 405.020935,324.047791 361.573151,323.906433 
	C358.224335,323.895538 354.879883,322.555420 351.592224,321.377869 
	C352.929474,309.118011 351.651642,297.524811 348.768799,286.064270 
z"/>
<path fill="#DE1310" opacity="1.000000" stroke="none" 
	d="
M351.533386,321.833130 
	C354.879883,322.555420 358.224335,323.895538 361.573151,323.906433 
	C405.020935,324.047791 448.469330,324.000305 492.375427,324.001038 
	C492.883606,335.692993 492.933868,347.384338 492.908905,359.539215 
	C444.048645,359.668488 395.263458,359.354706 346.479248,358.927124 
	C344.471039,358.909515 342.472198,357.824280 340.182007,356.720215 
	C346.143433,345.549164 349.618958,333.955444 351.533386,321.833130 
z"/>
<path fill="#E71917" opacity="1.000000" stroke="none" 
	d="
M215.000641,263.985718 
	C215.199341,266.453674 214.765167,268.154572 211.596085,268.036987 
	C200.987320,267.643433 190.373276,267.341370 179.758606,267.188721 
	C176.645004,267.143951 173.522842,267.959656 170.404160,267.963013 
	C121.296989,268.016022 72.189743,268.000671 22.624664,268.001831 
	C22.118238,259.311432 22.069656,250.620209 22.551811,241.464844 
	C72.959259,241.000473 122.835983,240.991852 172.712677,241.022568 
	C175.452362,241.024261 178.148682,241.267151 179.365143,237.970123 
	C189.584076,249.288589 201.512634,257.702728 215.000641,263.985718 
z"/>
<path fill="#EA1B19" opacity="1.000000" stroke="none" 
	d="
M179.065414,237.811691 
	C178.148682,241.267151 175.452362,241.024261 172.712677,241.022568 
	C122.835983,240.991852 72.959259,241.000473 22.624718,241.001389 
	C22.118603,231.644424 22.070318,222.286789 22.094223,212.465515 
	C66.755707,212.001236 111.345093,212.035919 155.934082,211.917038 
	C158.770905,211.909485 161.604568,210.709488 165.058685,210.343338 
	C166.102631,212.497757 166.144516,214.577835 167.018585,216.213120 
	C170.904007,223.482239 175.027817,230.623917 179.065414,237.811691 
z"/>
<path fill="#FFFEFE" opacity="1.000000" stroke="none" 
	d="
M179.365143,237.970123 
	C175.027817,230.623917 170.904007,223.482239 167.018585,216.213120 
	C166.144516,214.577835 166.102631,212.497757 165.462509,210.306213 
	C162.707474,194.378876 162.492172,178.904877 167.980408,163.383545 
	C172.910049,150.400803 180.414200,139.417618 190.397324,130.467484 
	C200.089355,121.778305 211.977036,116.860214 224.667282,114.151016 
	C255.002243,107.674889 284.190704,111.303307 311.853271,125.241249 
	C319.144318,128.914871 326.157959,133.668488 332.150696,139.175705 
	C335.357422,142.122604 336.118347,147.730911 337.932495,152.549774 
	C337.092621,154.899414 336.473419,156.929398 335.484253,158.759384 
	C331.424805,166.269135 327.252747,173.717957 323.034668,181.515106 
	C320.394257,184.439774 318.023529,187.254745 315.250153,189.592026 
	C309.589844,194.362320 304.788177,194.335083 299.190552,189.484161 
	C293.165253,184.262604 287.728577,178.290802 281.364441,173.545822 
	C267.761383,163.403564 252.593536,161.231064 236.488358,166.751068 
	C233.847733,167.656128 231.261536,168.966125 228.944016,170.525635 
	C218.178940,177.769760 216.716766,190.628922 225.560364,200.196960 
	C232.420441,207.619003 241.463272,211.462677 250.613770,215.115311 
	C268.024292,222.065125 285.405548,229.088257 303.124573,236.141632 
	C316.394806,243.725327 328.195557,252.867569 337.456909,264.543640 
	C342.258972,270.597717 344.744720,278.489075 348.522827,285.807373 
	C351.651642,297.524811 352.929474,309.118011 351.592224,321.377869 
	C349.618958,333.955444 346.143433,345.549164 339.812927,356.553772 
	C332.962830,367.670197 324.229462,376.821503 313.871155,383.870636 
	C306.916382,388.603516 298.430908,391.087067 290.315002,394.797668 
	C267.996338,400.944580 245.830307,402.010468 223.520798,396.991516 
	C205.883514,393.023712 189.965103,385.599579 176.404114,372.879211 
	C160.303040,356.213654 153.459244,336.466766 154.968079,313.750153 
	C155.143845,311.103790 155.619934,308.477386 155.927612,305.421844 
	C157.781891,296.723114 160.388901,288.691345 165.553009,281.841949 
	C168.153091,278.393341 171.027130,274.898743 174.487320,272.413605 
	C179.025772,269.154053 183.465134,271.338898 184.904922,276.864349 
	C185.977951,280.982300 186.897614,285.140198 188.015747,289.923950 
	C188.381363,291.064423 188.616821,291.561279 188.852295,292.058136 
	C189.091843,293.185669 189.331390,294.313171 189.779205,296.096375 
	C192.812561,306.613617 197.754379,315.207672 205.207016,322.322693 
	C216.450943,333.057190 230.454803,336.249451 245.324463,336.884827 
	C257.154694,337.390350 268.699860,335.944763 279.003937,329.590637 
	C293.820923,320.453613 294.634918,303.148163 280.959320,292.137604 
	C273.312134,287.381287 266.152802,281.895874 256.986053,279.821686 
	C250.970993,278.460632 245.251633,275.739075 239.452316,273.491425 
	C231.516541,270.415741 223.630600,267.211487 215.361969,264.024017 
	C201.512634,257.702728 189.584076,249.288589 179.365143,237.970123 
z"/>
<path fill="#E01513" opacity="1.000000" stroke="none" 
	d="
M280.962524,292.535004 
	C294.634918,303.148163 293.820923,320.453613 279.003937,329.590637 
	C268.699860,335.944763 257.154694,337.390350 245.324463,336.884827 
	C230.454803,336.249451 216.450943,333.057190 205.207016,322.322693 
	C197.754379,315.207672 192.812561,306.613617 189.988800,296.375977 
	C218.428513,295.999969 246.866882,296.012756 275.305206,295.976288 
	C277.647736,295.973297 280.628296,296.813995 280.962524,292.535004 
z"/>
<path fill="#E01513" opacity="1.000000" stroke="none" 
	d="
M189.096039,291.911865 
	C188.616821,291.561279 188.381363,291.064423 188.177109,290.284790 
	C188.585480,290.589905 188.962616,291.177734 189.096039,291.911865 
z"/>
</svg>